<svg width="24" height="24" viewBox="0 0 24 24" fill="none" xmlns="http://www.w3.org/2000/svg">
<path d="M3.75 12C3.75 7.44365 7.44365 3.75 12 3.75V2.25C6.61522 2.25 2.25 6.61522 2.25 12H3.75ZM12 3.75C16.5563 3.75 20.25 7.44365 20.25 12H21.75C21.75 6.61522 17.3848 2.25 12 2.25V3.75ZM8 15.75H16V14.25H8V15.75ZM14.25 9C14.25 10.2426 13.2426 11.25 12 11.25V12.75C14.0711 12.75 15.75 11.0711 15.75 9H14.25ZM12 11.25C10.7574 11.25 9.75 10.2426 9.75 9H8.25C8.25 11.0711 9.92893 12.75 12 12.75V11.25ZM9.75 9C9.75 7.75736 10.7574 6.75 12 6.75V5.25C9.92893 5.25 8.25 6.92893 8.25 9H9.75ZM12 6.75C13.2426 6.75 14.25 7.75736 14.25 9H15.75C15.75 6.92893 14.0711 5.25 12 5.25V6.75ZM8 14.25C6.23318 14.25 4.69268 15.215 3.87519 16.6431L5.17699 17.3883C5.73821 16.4079 6.79274 15.75 8 15.75V14.25ZM12 20.25C9.14654 20.25 6.63101 18.802 5.14847 16.5972L3.90371 17.4342C5.65304 20.0357 8.62619 21.75 12 21.75V20.25ZM5.14847 16.5972C4.26533 15.2838 3.75 13.7032 3.75 12H2.25C2.25 14.0106 2.85941 15.8812 3.90371 17.4342L5.14847 16.5972ZM16 15.75C17.2073 15.75 18.2618 16.4079 18.823 17.3883L20.1248 16.6431C19.3073 15.215 17.7668 14.25 16 14.25V15.75ZM20.25 12C20.25 13.7032 19.7347 15.2838 18.8515 16.5972L20.0963 17.4342C21.1406 15.8812 21.75 14.0106 21.75 12H20.25ZM18.8515 16.5972C17.369 18.802 14.8535 20.25 12 20.25V21.75C15.3738 21.75 18.347 20.0357 20.0963 17.4342L18.8515 16.5972Z" fill="white"/>
</svg>
