<svg width="18" height="16" viewBox="0 0 18 16" fill="none" xmlns="http://www.w3.org/2000/svg">
<g clip-path="url(#clip0_29_77)">
<path d="M3.50073 2H14.6287C14.9976 2 15.3514 2.14048 15.6122 2.39052C15.8731 2.64057 16.0197 2.97971 16.0197 3.33333V7.33333C16.0197 9.10144 15.2869 10.7971 13.9826 12.0474C12.6783 13.2976 10.9093 14 9.0647 14C8.15136 14 7.24696 13.8276 6.40315 13.4925C5.55934 13.1575 4.79263 12.6664 4.1468 12.0474C2.84249 10.7971 2.10974 9.10144 2.10974 7.33333V3.33333C2.10974 2.97971 2.25629 2.64057 2.51715 2.39052C2.77801 2.14048 3.13182 2 3.50073 2V2Z" stroke="#0768B5" stroke-width="2" stroke-linecap="round" stroke-linejoin="round"/>
<path d="M6.28271 6.66666L9.0647 9.33332L11.8467 6.66666" stroke="#0768B5" stroke-width="2" stroke-linecap="round" stroke-linejoin="round"/>
</g>
<defs>
<clipPath id="clip0_29_77">
<rect width="16.6919" height="16" fill="white" transform="translate(0.71875)"/>
</clipPath>
</defs>
</svg>
